<svg xmlns="http://www.w3.org/2000/svg" viewBox="0 0 64 64">
  <defs>
    <linearGradient id="bg" x1="0" y1="0" x2="1" y2="1">
      <stop offset="0" stop-color="#f97316"/>
      <stop offset="1" stop-color="#6366f1"/>
    </linearGradient>
  </defs>
  <rect x="4" y="4" width="56" height="56" rx="14" fill="url(#bg)"/>
  <path d="M18 40c0-6 4-10 14-10s14 4 14 10c0 4-3 8-14 8s-14-4-14-8z" fill="#fef3c7"/>
  <path d="M22 26c0-5 4-9 10-9s10 4 10 9" fill="none" stroke="#fef3c7" stroke-width="3" stroke-linecap="round"/>
  <circle cx="27" cy="24" r="1.6" fill="#0f172a"/>
  <circle cx="37" cy="24" r="1.6" fill="#0f172a"/>
  <path d="M30 31c1 .8 2 1.2 4 1.2s3-.4 4-1.2" fill="none" stroke="#0f172a" stroke-width="2" stroke-linecap="round"/>
</svg>

